<svg width="52" height="8" viewBox="0 0 52 8" fill="none" xmlns="http://www.w3.org/2000/svg">
<path d="M3.728 0.432C2.8 1.416 1.64 2.24 0.248 2.904L0.616 3.568C1.016 3.368 1.4 3.16 1.768 2.936V3.656H3.616V4.856H1.36V5.592H3.616V6.856H0.648V7.6H7.36V6.856H4.384V5.592H6.632V4.856H4.384V3.656H6.232V2.936C6.584 3.16 6.952 3.36 7.352 3.552L7.728 2.872C6.424 2.28 5.272 1.464 4.272 0.432H3.728ZM1.784 2.928C2.648 2.392 3.392 1.792 4 1.12C4.64 1.808 5.384 2.416 6.216 2.928H1.784ZM8.504 0.927999V1.592H10.264V2.088H11.032V1.592H12.968V2.088H13.736V1.592H15.496V0.927999H13.736V0.408H12.968V0.927999H11.032V0.408H10.264V0.927999H8.504ZM9.328 2.352V2.992H11.416V3.496H8.584V4.168H11.608C10.584 4.648 9.488 5 8.32 5.232L8.616 5.896C9.048 5.768 9.464 5.64 9.856 5.512V7.84H10.592V7.528H13.864V7.84H14.6V4.68H12.056C12.312 4.56 12.552 4.448 12.768 4.336C12.864 4.28 12.968 4.224 13.072 4.168H15.456V3.496H14.088C14.488 3.192 14.864 2.848 15.232 2.48L14.688 2.064C14.4 2.352 14.08 2.64 13.728 2.912V2.352H12.152V1.84H11.416V2.352H9.328ZM12.872 3.496H12.152V2.992H13.624C13.384 3.168 13.136 3.336 12.872 3.496ZM10.592 6.392H13.864V6.912H10.592V6.392ZM13.864 5.8H10.592V5.296H13.864V5.8ZM19.952 2.248H20.24V7.84H21.008V6.032H23.272V5.304H21.008V4.128H23.256V3.392H21.008V2.248H23.576V1.504H20.28C20.4 1.2 20.52 0.88 20.632 0.544L19.864 0.375999C19.4 1.736 18.832 2.808 18.168 3.584L18.712 4.24C19.168 3.68 19.584 3.016 19.952 2.248ZM17.224 3.568V7.84H17.992V2.464C18.312 1.92 18.576 1.344 18.784 0.736L18.064 0.4C17.672 1.6 17.064 2.656 16.24 3.56L16.496 4.376C16.752 4.112 17 3.84 17.224 3.568ZM27.864 1.64H28.656C28.576 1.88 28.472 2.12 28.36 2.36H26.976V3.016H28C27.616 3.624 27.136 4.184 26.544 4.68L26.976 5.256C27.152 5.096 27.336 4.936 27.512 4.76V7.808H28.24V7.544H31.568V6.912H30.096V6.408H31.392V5.808H30.096V5.32H31.392V4.72H30.096V4.256H31.488V3.632H30.096C30.016 3.416 29.928 3.224 29.832 3.056L29.152 3.312C29.224 3.408 29.288 3.52 29.344 3.632H28.424C28.56 3.432 28.688 3.224 28.808 3.016H31.368V2.36H29.128C29.224 2.128 29.312 1.888 29.392 1.64H31.376V0.976H28.24C28.304 0.84 28.368 0.696 28.432 0.544L27.744 0.392C27.512 0.952 27.232 1.4 26.912 1.72L27.368 2.256C27.544 2.072 27.704 1.864 27.864 1.64ZM28.24 6.912V6.408H29.384V6.912H28.24ZM29.384 5.808H28.24V5.32H29.384V5.808ZM29.384 4.72H28.24V4.256H29.384V4.72ZM26.032 3.872C26.144 4.08 26.272 4.336 26.416 4.624L26.832 3.984C26.56 3.616 26.296 3.28 26.032 2.976V2.528H26.744V1.808H26.032V0.44H25.296V1.808H24.424V2.528H25.296C25.088 3.424 24.752 4.224 24.288 4.928L24.616 5.752C24.88 5.264 25.104 4.744 25.296 4.184V7.8H26.032V3.872ZM35.568 5.28V2.416H33.536V1.64C34.352 1.528 35.056 1.328 35.632 1.024L35.12 0.447999C34.608 0.752 33.856 0.968 32.864 1.088V4.472C32.848 5.544 32.64 6.48 32.256 7.264L32.784 7.808C33.152 7.088 33.384 6.24 33.48 5.28H35.568ZM33.536 3.152H34.872V4.584H33.528C33.528 4.552 33.536 4.512 33.536 4.472V3.152ZM36.808 3.576H38.08V7.824H38.824V3.576H39.672V2.848H36.808L36.8 1.6C37.76 1.552 38.632 1.392 39.416 1.104L39.032 0.44C38.232 0.76 37.264 0.936 36.112 0.976V4.68C36.096 5.888 35.912 6.824 35.576 7.496L36.264 7.84C36.616 7.136 36.792 6.08 36.808 4.68V3.576ZM42.896 3.424H45.888V4.128H42.896V3.424ZM45.888 4.792V5.48H42.896V4.792H45.888ZM45.888 6.136V6.864C45.888 7.04 45.784 7.128 45.592 7.128C45.328 7.128 45.048 7.112 44.752 7.088L44.936 7.776H45.832C46.344 7.76 46.6 7.536 46.6 7.096V2.768H42.952C43.104 2.52 43.248 2.264 43.376 2H47.568V1.264H43.704C43.8 1.016 43.888 0.752 43.968 0.48L43.192 0.392C43.096 0.68 42.992 0.976 42.872 1.264H40.528V2H42.504C41.976 2.944 41.24 3.792 40.312 4.528L40.8 5.168C41.312 4.752 41.768 4.304 42.184 3.816V7.808H42.896V6.136H45.888ZM50 5.8C49.696 5.8 49.432 5.896 49.224 6.104C49 6.304 48.896 6.56 48.896 6.864C48.896 7.168 49 7.424 49.224 7.632C49.432 7.824 49.696 7.928 50 7.928C50.304 7.928 50.56 7.824 50.776 7.624C50.992 7.416 51.104 7.16 51.104 6.864C51.104 6.56 50.992 6.312 50.776 6.112C50.56 5.904 50.304 5.8 50 5.8ZM50 6.328C50.144 6.328 50.28 6.376 50.392 6.488C50.496 6.584 50.552 6.712 50.552 6.864C50.552 7.008 50.496 7.136 50.392 7.248C50.28 7.344 50.144 7.4 50 7.4C49.848 7.4 49.72 7.344 49.608 7.248C49.496 7.136 49.448 7.008 49.448 6.864C49.448 6.712 49.496 6.584 49.608 6.488C49.72 6.376 49.848 6.328 50 6.328Z" fill="#CB2C30"/>
</svg>
